<svg id="layer" xmlns="http://www.w3.org/2000/svg" viewBox="0 0 599.9 107"><defs><style>.cls-1{fill:#39c463;}</style></defs><path d="M37.2,4.7H57.6V22.9H72.3V37.4H57.6V67.3c0,6.3,2,7.5,8.8,7.5h5.9V89.6h-13c-16.5,0-22.1-3.2-22.1-18.7V37.4H26.7V22.9H37.2ZM141.5,68.8c-6,15.8-20,22.6-33.3,22.6C86.5,91.4,71.6,78.3,71.6,56c0-21.4,16.2-34.9,35.8-34.9,22.2,0,35.8,16.8,34.4,40.5H92.3c.6,9.5,8,13.8,15.4,13.8,7.8,0,12.7-2.8,15-6.7ZM92.6,49.2h28.9c-.4-8.4-6.2-12.6-14-12.6C100.1,36.6,93.7,40.4,92.6,49.2ZM212,47.4H193c-1.8-7.8-6.7-10.5-12.7-10.5-7.3,0-14.5,5-14.5,19.3,0,14.5,7.2,19.3,14.5,19.3,7.5,0,12.2-3.9,13.7-10.3h19c-4.6,19.8-20.6,26.1-34,26.1-22,0-34.1-14.1-34.1-35.4S158.8,21,179,21C192.8,21,208,27.3,212,47.4Zm23.7-15.6c2.9-5,10.2-10.3,20.7-10.3,17.1,0,22.5,10.1,22.5,28.2V89.8H258.5V54.9c0-9.5-.3-17.3-10.2-17.3-8.8,0-12.5,5.7-12.5,18.2V90H215.4V0h20.4l-.1,31.8Zm90.2,10.8c-1.4-5-6.6-6.4-13-6.4-7.1,0-10.6,1.7-10.6,5,0,3.1,2.4,4.9,8.2,6L323,49.4c16,2.9,23.7,7.7,23.7,19.4,0,15-13.8,22.6-32.3,22.6-17.8,0-30.4-7.5-32.7-23.3h19c1.8,6.4,7,8.4,14,8.4,7.3,0,12.4-2,12.4-6,0-2.9-2.6-4.9-10.5-6.2l-11.9-2C291.8,60.2,283,53.7,283,41.9c0-13.3,14-20.6,30.5-20.6,15.2,0,29.1,6.1,31.6,21.4l-19.2-.1ZM357.2,4.7h20.4V22.9h14.7V37.4H377.6V67.3c0,6.3,2,7.5,8.8,7.5h5.8V89.6H379.3c-16.5,0-22.1-3.2-22.1-18.7V37.4H346.7V22.9h10.5Zm81.7,40.7c0-8-3.8-10.6-11.3-10.6-6.6,0-11,3.4-11.9,9.8H396.6c1-12.6,12.9-23.7,32.7-23.7,19.3,0,30.2,7.8,29.8,28.1l-.3,14.5v7c0,7.3.5,15.2,1.5,19.3H440.2l-.3-8.1c-5,7.1-12.9,9.7-22.5,9.7-12.7,0-23.1-7.4-23.1-19.6,0-16.4,18.5-21.7,44.4-23.7Zm.6,14.7c-14.3,1.4-23.8,2.8-23.8,10.2,0,4.3,4.1,7.2,9.4,7.2,8.2,0,14.4-3.5,14.4-15.8Zm66.4-17.5a26.41,26.41,0,0,0-5.6-.4c-9.9,0-15,3.6-15,14V89.7H464.8V22.9h19.7V35.6c3.1-8,8.7-12.7,18.2-13.1h1.5a9.7,9.7,0,0,1,1.7.1v20Zm45.2,0c-1.4-5-6.6-6.4-13-6.4-7.1,0-10.6,1.7-10.6,5,0,3.1,2.4,4.9,8.2,6l12.4,2.2c16,2.9,23.7,7.7,23.7,19.4,0,15-13.8,22.6-32.3,22.6-17.7,0-30.4-7.5-32.7-23.3h19c1.8,6.4,7,8.4,14,8.4,7.3,0,12.4-2,12.4-6,0-2.9-2.6-4.9-10.5-6.2l-11.9-2c-12.9-2.1-21.6-8.6-21.6-20.4,0-13.3,14-20.6,30.5-20.6,15.2,0,29.1,6.1,31.6,21.4l-19.2-.1Z" transform="translate(-26.7)"/><path class="cls-1" d="M571.4,107V89.8h55.2V107Z" transform="translate(-26.7)"/></svg>